<svg width="48" height="48" viewBox="0 0 48 48" fill="none" xmlns="http://www.w3.org/2000/svg">
<path d="M5.53166 4.52446C5.71916 4.46902 5.91575 4.45107 6.1102 4.47163C6.30465 4.4922 6.49314 4.55088 6.6649 4.64431C6.83666 4.73775 6.98833 4.86411 7.11123 5.01619C7.23414 5.16826 7.32588 5.34306 7.38121 5.5306L8.47268 9.22772H37.5555C41.2069 9.22772 43.9952 12.6351 42.9434 16.1933L39.659 27.3065C38.9605 29.674 36.7398 31.2556 34.2711 31.2556H16.1011C13.6324 31.2556 11.4137 29.674 10.7132 27.3065L4.5275 6.37401C4.41606 5.99585 4.45921 5.58893 4.64746 5.24255C4.83572 4.89617 5.15372 4.63664 5.53166 4.52446ZM12.404 38.6975C12.404 37.5133 12.8744 36.3775 13.7118 35.5402C14.5491 34.7028 15.6849 34.2324 16.8691 34.2324C18.0533 34.2324 19.189 34.7028 20.0264 35.5402C20.8638 36.3775 21.3342 37.5133 21.3342 38.6975C21.3342 39.8817 20.8638 41.0174 20.0264 41.8548C19.189 42.6922 18.0533 43.1626 16.8691 43.1626C15.6849 43.1626 14.5491 42.6922 13.7118 41.8548C12.8744 41.0174 12.404 39.8817 12.404 38.6975ZM28.2799 38.6975C28.2799 38.1111 28.3954 37.5305 28.6198 36.9888C28.8442 36.447 29.1731 35.9548 29.5877 35.5402C30.0024 35.1255 30.4946 34.7966 31.0363 34.5723C31.5781 34.3479 32.1587 34.2324 32.745 34.2324C33.3314 34.2324 33.912 34.3479 34.4538 34.5723C34.9955 34.7966 35.4877 35.1255 35.9024 35.5402C36.317 35.9548 36.6459 36.447 36.8703 36.9888C37.0947 37.5305 37.2102 38.1111 37.2102 38.6975C37.2102 39.8817 36.7397 41.0174 35.9024 41.8548C35.065 42.6922 33.9293 43.1626 32.745 43.1626C31.5608 43.1626 30.4251 42.6922 29.5877 41.8548C28.7504 41.0174 28.2799 39.8817 28.2799 38.6975Z" fill="#FF3164"/>
</svg>
