<svg width="43" height="36" viewBox="0 0 43 36" fill="none" xmlns="http://www.w3.org/2000/svg">
<path d="M20.8369 0C32.345 0 41.6748 8.15348 41.6748 18.2109C41.6747 22.8416 39.6951 26.7381 36.4375 29.5967L36.9658 30.2275C37.0218 30.1561 37.0165 30.0802 37.0166 30.0742C37.0245 30.1088 37.0636 30.2093 37.1904 30.3809C37.4416 30.7204 37.8899 31.1434 38.4668 31.6045C39.6073 32.516 41.0642 33.4351 41.9131 33.9746C41.9819 34.0183 42.0609 34.0748 42.1338 34.1436C42.1952 34.2015 42.3183 34.3285 42.3809 34.5254C42.4622 34.7824 42.4127 35.0718 42.2246 35.2891C42.0812 35.4547 41.9066 35.52 41.8271 35.5459C41.6555 35.6017 41.467 35.612 41.3301 35.6143C41.1742 35.6168 40.9952 35.6086 40.8037 35.5938C40.043 35.5347 38.8891 35.3516 37.6445 35.1045C36.3933 34.856 35.021 34.537 33.8154 34.2002C32.633 33.8699 31.5401 33.5034 30.8945 33.1445L30.7236 33.0498C27.7819 34.2315 24.4147 34.8701 20.8369 34.8701C9.32909 34.87 0.000183156 28.2681 0 18.2109C0 8.15356 9.32898 0.000139418 20.8369 0ZM28.5693 8.2627C26.2356 6.9408 23.304 6.93423 20.8369 8.88477C18.3698 6.93422 15.4382 6.94186 13.1045 8.2627C10.61 9.67731 8.85522 12.5467 8.93262 15.8945C9.09614 22.9637 19.0505 28.1726 20.8369 28.1729C22.6229 28.1729 32.5765 22.9639 32.7412 15.8945C32.8186 12.5467 31.0638 9.67615 28.5693 8.2627Z" fill="#FF3164"/>
</svg>
