<svg width="41" height="40" viewBox="0 0 41 40" fill="none" xmlns="http://www.w3.org/2000/svg">
<path d="M15.4023 22.0039C16.9996 22.0043 18.3119 23.2653 18.376 24.8613L18.8525 36.7686C18.92 38.4577 17.5684 39.8641 15.8779 39.8643H5.90039C4.3936 39.8643 3.12393 38.7382 2.94434 37.2422L1.51562 25.335C1.30325 23.5632 2.68718 22.0039 4.47168 22.0039H15.4023ZM35.3418 22.0039C37.1261 22.0041 38.5102 23.5634 38.2979 25.335L36.8691 37.2422C36.6896 38.7381 35.4197 39.8641 33.9131 39.8643H23.9355C22.2449 39.8643 20.8935 38.4578 20.9609 36.7686L21.4365 24.8613C21.5006 23.2651 22.8136 22.004 24.4111 22.0039H35.3418ZM19.8135 3.57422C21.5816 0.733801 24.5102 -0.676024 26.5869 0.316406L26.792 0.423828C28.9486 1.65799 29.2392 5.20813 27.4404 8.35254C25.6977 11.3986 22.6332 12.9475 20.4824 11.9199L20.2764 11.8125C20.1107 11.7177 19.957 11.6073 19.8135 11.4863C19.6701 11.6071 19.517 11.7178 19.3516 11.8125L19.1455 11.9199C18.532 12.2131 17.8441 12.2954 17.1338 12.1943C18.458 12.9689 19.3484 14.4051 19.3486 16.0498C19.3486 18.5156 17.3495 20.5152 14.8838 20.5156H4.46484C1.99883 20.5156 0 18.5158 0 16.0498C0.000370732 13.5841 1.99906 11.585 4.46484 11.585H14.8838C15.0693 11.585 15.2521 11.5971 15.4316 11.6191C14.2088 10.9718 13.0397 9.84203 12.1875 8.35254C10.3886 5.20799 10.6791 1.65788 12.8359 0.423828L13.041 0.316406C15.1177 -0.67583 18.0454 0.734068 19.8135 3.57422ZM35.7207 11.585C38.1863 11.5852 40.1852 13.5843 40.1855 16.0498C40.1855 18.5157 38.1865 20.5154 35.7207 20.5156H25.3018C22.8358 20.5155 20.8369 18.5157 20.8369 16.0498C20.8373 13.5842 22.8361 11.5851 25.3018 11.585H35.7207ZM15.5801 2.52246C14.7291 2.11161 14.1991 2.21584 13.9443 2.36133C13.6897 2.50705 13.331 2.9118 13.2539 3.85449C13.178 4.78479 13.4205 6.01272 14.125 7.24414C14.8297 8.47579 15.7659 9.30791 16.6064 9.71387C17.458 10.125 17.9876 10.0187 18.2422 9.87305C18.3596 9.80575 18.4972 9.68276 18.6211 9.47852C18.3832 8.54618 18.3903 7.4556 18.6553 6.32812C18.514 5.89294 18.3183 5.44272 18.0605 4.99219C17.3559 3.76069 16.4206 2.92846 15.5801 2.52246ZM25.6826 2.36133C25.4277 2.21593 24.8976 2.11163 24.0469 2.52246C23.2064 2.92846 22.271 3.76075 21.5664 4.99219C21.3087 5.4427 21.1129 5.89297 20.9717 6.32812C21.2367 7.45571 21.2438 8.5461 21.0059 9.47852C21.1299 9.68306 21.2683 9.80574 21.3857 9.87305C21.6404 10.0187 22.1699 10.1251 23.0215 9.71387C23.8621 9.30787 24.7982 8.47577 25.5029 7.24414C26.2073 6.01276 26.4499 4.78476 26.374 3.85449C26.297 2.91181 25.9372 2.50707 25.6826 2.36133Z" fill="#FF3164"/>
</svg>
