<svg width="45" height="45" viewBox="0 0 45 45" fill="none" xmlns="http://www.w3.org/2000/svg">
<path d="M24.2185 0.745639C23.1458 -0.248547 21.4888 -0.248547 20.4249 0.745639L0.889994 18.8852C0.0527851 19.6701 -0.226285 20.8823 0.19232 21.9462C0.610925 23.0102 1.63127 23.7166 2.78244 23.7166H4.17778V39.0654C4.17778 42.1439 6.68069 44.6468 9.75918 44.6468H34.8755C37.9539 44.6468 40.4569 42.1439 40.4569 39.0654V23.7166H41.8522C43.0034 23.7166 44.0324 23.0102 44.451 21.9462C44.8696 20.8823 44.5906 19.6613 43.7534 18.8852L24.2185 0.745639ZM20.922 27.9026H23.7127C26.0237 27.9026 27.8987 29.7776 27.8987 32.0887V40.4608H16.7359V32.0887C16.7359 29.7776 18.6109 27.9026 20.922 27.9026Z" fill="#FF3164"/>
</svg>
