<svg width="38" height="38" viewBox="0 0 38 38" fill="none" xmlns="http://www.w3.org/2000/svg">
<path d="M18.6046 18.6047C16.0465 18.6047 13.8566 17.6938 12.0349 15.8721C10.2132 14.0504 9.30232 11.8605 9.30232 9.30233C9.30232 6.74419 10.2132 4.55426 12.0349 2.73256C13.8566 0.910853 16.0465 0 18.6046 0C21.1628 0 23.3527 0.910853 25.1744 2.73256C26.9961 4.55426 27.907 6.74419 27.907 9.30233C27.907 11.8605 26.9961 14.0504 25.1744 15.8721C23.3527 17.6938 21.1628 18.6047 18.6046 18.6047ZM0 32.5581V30.6977C0 29.3798 0.339535 28.169 1.0186 27.0651C1.69767 25.9612 2.59845 25.1178 3.72093 24.5349C6.12403 23.3333 8.56589 22.4326 11.0465 21.8326C13.5271 21.2326 16.0465 20.9318 18.6046 20.9302C21.1628 20.9287 23.6822 21.2295 26.1628 21.8326C28.6434 22.4357 31.0853 23.3364 33.4884 24.5349C34.6124 25.1163 35.5139 25.9597 36.193 27.0651C36.8721 28.1705 37.2108 29.3814 37.2093 30.6977V32.5581C37.2093 33.8372 36.7543 34.9326 35.8442 35.8442C34.9341 36.7558 33.8388 37.2108 32.5581 37.2093H4.65116C3.37209 37.2093 2.27752 36.7543 1.36744 35.8442C0.457364 34.9341 0.00155039 33.8388 0 32.5581Z" fill="#FF3164"/>
</svg>
