<svg width="60" height="60" viewBox="0 0 60 60" fill="none" xmlns="http://www.w3.org/2000/svg">
<path d="M22.5 40C24.626 41.5757 27.2115 42.5 30 42.5C32.7885 42.5 35.374 41.5757 37.5 40" stroke="#939393" stroke-width="3.75" stroke-linecap="round"/>
<path d="M40 26.25C40 28.321 38.8807 30 37.5 30C36.1193 30 35 28.321 35 26.25C35 24.1789 36.1193 22.5 37.5 22.5C38.8807 22.5 40 24.1789 40 26.25Z" fill="#939393"/>
<path d="M22.5 30C23.8807 30 25 28.3211 25 26.25C25 24.1789 23.8807 22.5 22.5 22.5C21.1193 22.5 20 24.1789 20 26.25C20 28.3211 21.1193 30 22.5 30Z" fill="#939393"/>
<path d="M17.5 8.34455C21.1772 6.21743 25.4465 5 30 5C43.807 5 55 16.1929 55 30C55 43.807 43.807 55 30 55C16.1929 55 5 43.807 5 30C5 25.4465 6.21743 21.1772 8.34455 17.5" stroke="#939393" stroke-width="3.75" stroke-linecap="round"/>
</svg>
