<svg width="19" height="20" viewBox="0 0 19 20" fill="none" xmlns="http://www.w3.org/2000/svg">
<path d="M13.7861 0.00683594C16.692 0.154294 19.0029 2.55744 19.0029 5.5V11.1982L18.9961 11.4814C18.853 14.2931 16.598 16.5487 13.7861 16.6914L13.5029 16.6982H6.93652L2.77441 19.4199C2.60202 19.5322 2.37743 19.5278 2.20996 19.4082C2.0425 19.2885 1.96614 19.0774 2.0166 18.8779L2.75781 15.9648C1.11105 15.0156 0.000352041 13.2373 0 11.1982V5.5C0 2.46252 2.46255 0.000131609 5.5 0H13.5029L13.7861 0.00683594ZM5.5 1C3.01483 1.00013 1 3.0148 1 5.5V11.1982L1.01172 11.5303C1.13204 13.1755 2.13766 14.5762 3.55566 15.2568C3.7703 15.3599 3.88283 15.6003 3.82422 15.8311L3.30176 17.8789L6.51367 15.7793L6.57715 15.7441C6.64259 15.7139 6.71444 15.6983 6.78711 15.6982H13.5029L13.7344 15.6924C16.035 15.5757 17.88 13.7303 17.9971 11.4297L18.0029 11.1982V5.5C18.0029 3.09241 16.1121 1.12639 13.7344 1.00586L13.5029 1H5.5ZM10.001 10.0977C10.1449 10.0977 10.2679 10.1478 10.3691 10.249C10.4758 10.3503 10.5292 10.4867 10.5293 10.6572C10.5293 10.8172 10.4758 10.951 10.3691 11.0576C10.2678 11.1589 10.1449 11.209 10.001 11.209C9.85705 11.2089 9.73162 11.1589 9.625 11.0576C9.52367 10.951 9.47363 10.8172 9.47363 10.6572C9.47368 10.4867 9.52372 10.3503 9.625 10.249C9.73159 10.1478 9.85712 10.0977 10.001 10.0977ZM7.19531 10.4971H8.37207V11.1055H5.15527V10.4971H6.46777V6.12109H5.41992V5.65723C5.68111 5.60924 5.90769 5.55075 6.09961 5.48145C6.29694 5.41211 6.47574 5.33188 6.63574 5.24121H7.19531V10.4971ZM13.8594 10.4971H15.0361V11.1055H11.8193V10.4971H13.1318V6.12109H12.084V5.65723C12.3452 5.60924 12.5718 5.55075 12.7637 5.48145C12.961 5.41211 13.1398 5.33188 13.2998 5.24121H13.8594V10.4971ZM10.001 6.86523C10.145 6.86523 10.2678 6.91876 10.3691 7.02539C10.4758 7.12672 10.5293 7.26045 10.5293 7.42578C10.5292 7.59086 10.4756 7.72644 10.3691 7.83301C10.2678 7.93434 10.145 7.98535 10.001 7.98535C9.85705 7.98531 9.73162 7.9343 9.625 7.83301C9.52393 7.72646 9.4737 7.59081 9.47363 7.42578C9.47363 7.26047 9.52369 7.12672 9.625 7.02539C9.73162 6.91877 9.85705 6.86528 10.001 6.86523Z" fill="#333333"/>
</svg>
