<svg width="19" height="18" viewBox="0 0 19 18" fill="none" xmlns="http://www.w3.org/2000/svg">
<path d="M13.7832 0.00683594C16.6892 0.154222 19 2.55741 19 5.5V9.5C19 12.5376 16.5376 15 13.5 15H6.9209L2.75195 17.4316C2.57565 17.5345 2.35456 17.5197 2.19336 17.3945C2.03235 17.2694 1.96372 17.0594 2.01953 16.8633L2.75977 14.2676C1.2224 13.3822 0.151403 11.7754 0.0146484 9.90723L0 9.5V5.5C7.08705e-08 2.46243 2.46243 1.41736e-07 5.5 0H13.5L13.7832 0.00683594ZM5.5 1C3.01472 1 1 3.01472 1 5.5V9.5L1.01172 9.83301C1.13238 11.4825 2.14264 12.8858 3.56641 13.5645C3.78665 13.6694 3.8988 13.9177 3.83203 14.1523L3.32031 15.9414L6.53418 14.0684L6.59375 14.0391C6.65456 14.0137 6.7198 14 6.78613 14H13.5L13.7314 13.9941C16.0325 13.8776 17.8776 12.0325 17.9941 9.73145L18 9.5V5.5C18 3.09234 16.1092 1.12632 13.7314 1.00586L13.5 1H5.5ZM5.5 6.5C6.05228 6.5 6.5 6.94772 6.5 7.5C6.5 8.05229 6.05228 8.5 5.5 8.5C4.94772 8.5 4.5 8.05229 4.5 7.5C4.5 6.94772 4.94772 6.5 5.5 6.5ZM9.5 6.5C10.0523 6.5 10.5 6.94772 10.5 7.5C10.5 8.05229 10.0523 8.5 9.5 8.5C8.94771 8.5 8.5 8.05229 8.5 7.5C8.5 6.94772 8.94771 6.5 9.5 6.5ZM13.5 6.5C14.0523 6.5 14.5 6.94772 14.5 7.5C14.5 8.05229 14.0523 8.5 13.5 8.5C12.9477 8.5 12.5 8.05229 12.5 7.5C12.5 6.94772 12.9477 6.5 13.5 6.5Z" fill="#333333"/>
</svg>
