<svg width="18" height="14" viewBox="0 0 18 14" fill="none" xmlns="http://www.w3.org/2000/svg">
<path d="M11.52 3.5L12.6 4.55L6.48 10.5L5.4 9.45L11.52 3.5ZM1.8 0H16.2C17.199 0 18 0.77875 18 1.75V5.25C17.5226 5.25 17.0648 5.43437 16.7272 5.76256C16.3896 6.09075 16.2 6.53587 16.2 7C16.2 7.46413 16.3896 7.90925 16.7272 8.23744C17.0648 8.56563 17.5226 8.75 18 8.75V12.25C18 13.2212 17.199 14 16.2 14H1.8C1.32261 14 0.864773 13.8156 0.527208 13.4874C0.189642 13.1592 0 12.7141 0 12.25V8.75C0.999 8.75 1.8 7.97125 1.8 7C1.8 6.53587 1.61036 6.09075 1.27279 5.76256C0.935227 5.43437 0.47739 5.25 0 5.25V1.75C0 1.28587 0.189642 0.840752 0.527208 0.512563C0.864773 0.184374 1.32261 0 1.8 0ZM1.8 1.75V3.9725C2.34691 4.2791 2.80112 4.72033 3.11693 5.25179C3.43274 5.78326 3.59901 6.38622 3.59901 7C3.59901 7.61378 3.43274 8.21674 3.11693 8.74821C2.80112 9.27967 2.34691 9.7209 1.8 10.0275V12.25H16.2V10.0275C15.6531 9.7209 15.1989 9.27967 14.8831 8.74821C14.5673 8.21674 14.401 7.61378 14.401 7C14.401 6.38622 14.5673 5.78326 14.8831 5.25179C15.1989 4.72033 15.6531 4.2791 16.2 3.9725V1.75H1.8ZM6.75 3.5C7.497 3.5 8.1 4.08625 8.1 4.8125C8.1 5.53875 7.497 6.125 6.75 6.125C6.003 6.125 5.4 5.53875 5.4 4.8125C5.4 4.08625 6.003 3.5 6.75 3.5ZM11.25 7.875C11.997 7.875 12.6 8.46125 12.6 9.1875C12.6 9.91375 11.997 10.5 11.25 10.5C10.503 10.5 9.9 9.91375 9.9 9.1875C9.9 8.46125 10.503 7.875 11.25 7.875Z" fill="#333333"/>
</svg>
