<svg width="20" height="18" viewBox="0 0 20 18" fill="none" xmlns="http://www.w3.org/2000/svg">
<path d="M15.2568 0.00683594C17.8989 0.140529 20 2.32472 20 5V13L19.9932 13.2568C19.8595 15.8989 17.6753 18 15 18H5C2.32472 18 0.140529 15.8989 0.00683594 13.2568L0 13V5C1.24836e-07 2.32472 2.10111 0.140529 4.74316 0.00683594L5 0H15L15.2568 0.00683594ZM5 1C2.79086 1 1 2.79086 1 5V13C1 15.2091 2.79086 17 5 17H15C17.2091 17 19 15.2091 19 13V5C19 2.79086 17.2091 1 15 1H5ZM7.05566 12.3408C7.43966 12.3408 7.75963 12.4612 8.01562 12.7012C8.27163 12.9316 8.40039 13.234 8.40039 13.6084C8.4003 13.973 8.27153 14.2798 8.01562 14.5293C7.75963 14.7693 7.43964 14.8896 7.05566 14.8896C6.67181 14.8896 6.35163 14.7692 6.0957 14.5293C5.84 14.2798 5.71201 13.9729 5.71191 13.6084C5.71191 13.2342 5.83994 12.9315 6.0957 12.7012C6.35163 12.4612 6.67181 12.3409 7.05566 12.3408ZM14.1748 12.3408C14.5695 12.3408 14.8894 12.4612 15.1348 12.7012C15.3907 12.9316 15.5186 13.2341 15.5186 13.6084C15.5185 13.973 15.3906 14.2798 15.1348 14.5293C14.8894 14.7693 14.5695 14.8896 14.1748 14.8896C13.7908 14.8896 13.4708 14.7693 13.2148 14.5293C12.959 14.2798 12.8311 13.9729 12.8311 13.6084C12.8311 13.2341 12.959 12.9315 13.2148 12.7012C13.4708 12.4612 13.7908 12.3408 14.1748 12.3408ZM7.28027 3.59961C7.90947 3.59964 8.46938 3.70079 8.95996 3.90234C9.45056 4.10392 9.82904 4.40645 10.0957 4.80957C10.373 5.20317 10.5117 5.69777 10.5117 6.29297C10.5117 6.7057 10.4156 7.07501 10.2236 7.40137C10.0423 7.7181 9.81339 8.02065 9.53613 8.30859C9.26955 8.58691 9.00291 8.8703 8.73633 9.1582C8.4804 9.43653 8.27229 9.73913 8.1123 10.0654C7.9523 10.3822 7.89881 10.7524 7.95215 11.1748H6.1123C6.03764 10.7044 6.06935 10.2816 6.20801 9.90723C6.34667 9.53284 6.53886 9.197 6.78418 8.89941C7.0295 8.60183 7.28015 8.31859 7.53613 8.0498C7.80275 7.78105 8.02669 7.51697 8.20801 7.25781C8.39991 6.99874 8.496 6.72028 8.49609 6.42285C8.49609 6.16365 8.43765 5.93712 8.32031 5.74512C8.20298 5.55322 8.03153 5.40439 7.80762 5.29883C7.59446 5.18384 7.33335 5.12603 7.02441 5.12598C6.66175 5.12598 6.32496 5.20285 6.01562 5.35645C5.71709 5.51 5.43453 5.71652 5.16797 5.97559L4 5.01074C4.39461 4.59806 4.86928 4.26208 5.42383 4.00293C5.97849 3.73413 6.59761 3.59961 7.28027 3.59961ZM15.167 5.64453L14.8789 11.1748H13.4873L13.1826 5.64453L13.1191 3.78711H15.2305L15.167 5.64453Z" fill="#333333"/>
</svg>
