<svg width="47" height="47" viewBox="0 0 47 47" fill="none" xmlns="http://www.w3.org/2000/svg">
<mask id="path-1-inside-1_1180_2400" fill="white">
<path d="M23.499 8.73462C28.0275 4.68294 33.0971 4.11322 37.208 5.99243C41.5456 7.97617 44.5516 12.582 44.5518 17.8928C44.5518 23.1136 42.3785 27.0953 39.5254 30.3069C36.725 33.4617 33.1529 35.9846 30.3604 38.1877C29.3557 38.9789 28.2803 39.8208 27.1875 40.4592C26.0967 41.0957 24.8512 41.6145 23.5 41.6145C22.1488 41.6145 20.9033 41.0976 19.8125 40.4592C18.7217 39.8208 17.6443 38.9789 16.6396 38.1877C13.8471 35.9866 10.275 33.4598 7.47461 30.3069C4.62145 27.0972 2.44824 23.1136 2.44824 17.8928C2.44841 12.582 5.45636 7.97617 9.79199 5.99243C13.9023 4.11353 18.9738 4.68322 23.499 8.73462Z"/>
</mask>
<path d="M23.499 8.73462L22.165 10.2247L23.4986 11.4187L24.8326 10.2251L23.499 8.73462ZM37.208 5.99243L38.0398 4.17362L38.0395 4.17347L37.208 5.99243ZM44.5518 17.8928L46.5518 17.8928L46.5518 17.8928L44.5518 17.8928ZM39.5254 30.3069L38.0302 28.9786L38.0297 28.9792L39.5254 30.3069ZM30.3604 38.1877L31.5978 39.759L31.5991 39.7579L30.3604 38.1877ZM27.1875 40.4592L28.1954 42.1867L28.1964 42.1861L27.1875 40.4592ZM23.5 41.6145L23.5 43.6145H23.5V41.6145ZM19.8125 40.4592L18.8023 42.1853L18.8023 42.1853L19.8125 40.4592ZM16.6396 38.1877L15.4016 39.7585L15.4022 39.759L16.6396 38.1877ZM7.47461 30.3069L8.96994 28.9787L8.9694 28.9781L7.47461 30.3069ZM2.44824 17.8928L0.448242 17.8928V17.8928H2.44824ZM9.79199 5.99243L8.9605 4.17347L8.95987 4.17376L9.79199 5.99243ZM23.499 8.73462L24.8326 10.2251C28.8268 6.65145 33.0567 6.29383 36.3765 7.81139L37.208 5.99243L38.0395 4.17347C33.1374 1.93261 27.2282 2.71444 22.1655 7.24412L23.499 8.73462ZM37.208 5.99243L36.3762 7.81125C39.971 9.45526 42.5516 13.3298 42.5518 17.8929L44.5518 17.8928L46.5518 17.8928C46.5516 11.8342 43.1202 6.49707 38.0398 4.17362L37.208 5.99243ZM44.5518 17.8928H42.5518C42.5518 22.4893 40.6603 26.018 38.0302 28.9786L39.5254 30.3069L41.0206 31.6352C44.0968 28.1725 46.5518 23.7378 46.5518 17.8928H44.5518ZM39.5254 30.3069L38.0297 28.9792C35.3833 31.9604 32.0322 34.3213 29.1216 36.6176L30.3604 38.1877L31.5991 39.7579C34.2737 37.6479 38.0666 34.963 41.0211 31.6346L39.5254 30.3069ZM30.3604 38.1877L29.123 36.6165C28.1003 37.4219 27.1319 38.1754 26.1786 38.7323L27.1875 40.4592L28.1964 42.1861C29.4286 41.4662 30.6112 40.536 31.5978 39.759L30.3604 38.1877ZM27.1875 40.4592L26.1796 38.7318C25.2268 39.2877 24.3432 39.6145 23.5 39.6145V41.6145V43.6145C25.3592 43.6145 26.9667 42.9036 28.1954 42.1867L27.1875 40.4592ZM23.5 41.6145L23.5 39.6145C22.6556 39.6145 21.7719 39.2886 20.8227 38.7331L19.8125 40.4592L18.8023 42.1853C20.0347 42.9066 21.642 43.6145 23.5 43.6145L23.5 41.6145ZM19.8125 40.4592L20.8227 38.7331C19.8701 38.1756 18.8983 37.4208 17.877 36.6165L16.6396 38.1877L15.4022 39.759C16.3902 40.5371 17.5733 41.4661 18.8023 42.1853L19.8125 40.4592ZM16.6396 38.1877L17.8777 36.617C14.9693 34.3245 11.6163 31.9582 8.96994 28.9787L7.47461 30.3069L5.97928 31.635C8.93373 34.9614 12.7249 37.6486 15.4016 39.7585L16.6396 38.1877ZM7.47461 30.3069L8.9694 28.9781C6.33989 26.0201 4.44824 22.4896 4.44824 17.8928H2.44824H0.448242C0.448242 23.7376 2.90301 28.1744 5.97982 31.6356L7.47461 30.3069ZM2.44824 17.8928L4.44824 17.8929C4.44838 13.3303 7.03065 9.45527 10.6241 7.81111L9.79199 5.99243L8.95987 4.17376C3.88207 6.49707 0.448429 11.8337 0.448242 17.8928L2.44824 17.8928ZM9.79199 5.99243L10.6235 7.81139C13.9428 6.29404 18.1744 6.65198 22.165 10.2247L23.499 8.73462L24.8331 7.24454C19.7731 2.71447 13.8617 1.93303 8.9605 4.17347L9.79199 5.99243Z" fill="#FF629C" mask="url(#path-1-inside-1_1180_2400)"/>
</svg>
