<svg width="640" height="134" viewBox="0 0 640 134" fill="none" xmlns="http://www.w3.org/2000/svg">
<path d="M0.00355196 4.38205V133.953H639.254V29.5559C613.396 54.9766 549.297 72.0554 499.768 37.7004C450.239 3.34548 398.238 56.2106 368.486 73.24C334.423 92.7374 250.333 118.405 183.499 56.2106C116.665 -5.98367 33.3212 -4.25605 0.00355196 4.38205Z" fill="#FF9DB5" fill-opacity="0.6"/>
<path d="M0.00355196 56.6549V133.953H640V5.12246C614.111 30.3979 526.04 101.12 476.454 66.9614C426.867 32.8027 380.371 22.9896 350.584 39.9216C316.481 59.3076 243.456 97.8808 179.979 73.587C94.4782 40.864 33.36 48.0661 0.00355196 56.6549Z" fill="#FFD0DC" fill-opacity="0.6"/>
<path d="M-1.48828 34.7388V133.953H638.508V22.8923C612.62 48.1677 509.821 122.207 460.234 88.0482C410.647 53.8896 369.182 40.019 339.396 56.951C305.292 76.337 223.853 70.1388 160.376 45.8449C74.8746 13.122 31.8682 26.15 -1.48828 34.7388Z" fill="#FFE8ED" fill-opacity="0.6"/>
</svg>
