<svg width="430" height="177" viewBox="0 0 430 177" fill="none" xmlns="http://www.w3.org/2000/svg">
<path d="M430 177C430 252.663 333.741 314 215 314C96.2588 314 0 252.663 0 177C0 101.337 96.2588 40 215 40C333.741 40 430 101.337 430 177Z" fill="#FAB7C7"/>
<path d="M596 137C596 212.663 499.741 274 381 274C262.259 274 166 212.663 166 137C166 61.337 262.259 0 381 0C499.741 0 596 61.337 596 137Z" fill="#FF5781"/>
<path d="M375 263C375 338.663 278.741 400 160 400C41.2588 400 -55 338.663 -55 263C-55 187.337 41.2588 126 160 126C278.741 126 375 187.337 375 263Z" fill="#FB99B1"/>
</svg>
