<svg width="18" height="18" viewBox="0 0 18 18" fill="none" xmlns="http://www.w3.org/2000/svg">
<path d="M9 0C13.9706 0 18 4.02944 18 9C18 13.9706 13.9706 18 9 18C4.02944 18 0 13.9706 0 9C0 4.02944 4.02944 0 9 0ZM9 2C5.13401 2 2 5.13401 2 9C2 12.866 5.13401 16 9 16C12.866 16 16 12.866 16 9C16 5.13401 12.866 2 9 2ZM10.2803 4.0498C10.8776 4.0498 11.3963 4.16174 11.835 4.38574C12.2828 4.60971 12.6328 4.95974 12.8848 5.43555C13.1368 5.91153 13.2627 6.53255 13.2627 7.29785C13.2627 8.05365 13.1226 8.68357 12.8428 9.1875C12.5722 9.68201 12.2081 10.0556 11.751 10.3076C11.303 10.5503 10.8123 10.6719 10.2803 10.6719H8.99219V13.8496H6.78027V4.0498H10.2803ZM8.99219 8.76758H9.94434C10.1683 8.76758 10.3599 8.71161 10.5186 8.59961C10.677 8.47839 10.7935 8.31539 10.8682 8.11035C10.9522 7.89568 10.9941 7.65684 10.9941 7.39551C10.9941 7.13435 10.9521 6.90586 10.8682 6.70996C10.7935 6.50476 10.6771 6.34635 10.5186 6.23438C10.3599 6.12237 10.1683 6.06641 9.94434 6.06641H8.99219V8.76758Z" fill="#333333"/>
</svg>
