<svg width="46" height="46" viewBox="0 0 46 46" fill="none" xmlns="http://www.w3.org/2000/svg">
<circle cx="23" cy="23" r="23" fill="#FF3164"/>
<path d="M22.9998 23C20.9595 23 19.2129 22.2735 17.7599 20.8206C16.307 19.3676 15.5805 17.621 15.5805 15.5806C15.5805 13.5403 16.307 11.7937 17.7599 10.3407C19.2129 8.88776 20.9595 8.16129 22.9998 8.16129C25.0402 8.16129 26.7868 8.88776 28.2398 10.3407C29.6927 11.7937 30.4192 13.5403 30.4192 15.5806C30.4192 17.621 29.6927 19.3676 28.2398 20.8206C26.7868 22.2735 25.0402 23 22.9998 23ZM8.16113 34.129V32.6452C8.16113 31.5941 8.43194 30.6283 8.97355 29.7479C9.51517 28.8675 10.2336 28.1948 11.1289 27.7298C13.0455 26.7715 14.9931 26.0531 16.9716 25.5745C18.9501 25.096 20.9595 24.8561 22.9998 24.8548C25.0402 24.8536 27.0496 25.0935 29.0281 25.5745C31.0066 26.0555 32.9541 26.774 34.8708 27.7298C35.7673 28.1935 36.4864 28.8662 37.028 29.7479C37.5696 30.6296 37.8398 31.5953 37.8385 32.6452V34.129C37.8385 35.1492 37.4756 36.0228 36.7498 36.7499C36.0239 37.477 35.1503 37.8399 34.1289 37.8387H11.8708C10.8506 37.8387 9.97764 37.4758 9.25178 36.7499C8.52592 36.0241 8.16237 35.1504 8.16113 34.129Z" fill="#FDFDFD"/>
</svg>
