<svg width="28" height="28" viewBox="0 0 28 28" fill="none" xmlns="http://www.w3.org/2000/svg">
<path d="M19.4138 25.6667H7.99406C3.42615 25.6667 2.28418 24.5 2.28418 19.8333V17.5C2.28418 12.8333 3.42615 11.6667 7.99406 11.6667H19.4138C23.9817 11.6667 25.1237 12.8333 25.1237 17.5V19.8333C25.1237 24.5 23.9817 25.6667 19.4138 25.6667Z" fill="#939393" stroke="#939393" stroke-width="1.5" stroke-linecap="round" stroke-linejoin="round"/>
<path d="M6.85156 11.6667V9.33334C6.85156 5.47167 7.99354 2.33334 13.7034 2.33334C18.8423 2.33334 20.5553 4.66667 20.5553 8.16667" stroke="#939393" stroke-width="2" stroke-linecap="round" stroke-linejoin="round"/>
<path d="M13.7036 21.5833C15.2803 21.5833 16.5585 20.2775 16.5585 18.6667C16.5585 17.0558 15.2803 15.75 13.7036 15.75C12.1268 15.75 10.8486 17.0558 10.8486 18.6667C10.8486 20.2775 12.1268 21.5833 13.7036 21.5833Z" fill="#939393" stroke="white" stroke-width="1.5" stroke-linecap="round" stroke-linejoin="round"/>
</svg>
