<svg width="43" height="49" viewBox="0 0 43 49" fill="none" xmlns="http://www.w3.org/2000/svg">
<path d="M33.4443 0C33.9965 9.89122e-05 34.4442 0.447872 34.4443 1V10.5557H41L41.2041 10.5664C42.2127 10.6687 42.9998 11.5202 43 12.5557V46.7783L42.9893 46.9824C42.8936 47.9238 42.1455 48.6721 41.2041 48.7676L41 48.7783H2L1.7959 48.7676C0.854488 48.6721 0.106384 47.9238 0.0107422 46.9824L0 46.7783V12.5557C0.000200211 11.5202 0.787351 10.6687 1.7959 10.5664L2 10.5557H8.55566V1C8.55578 0.447872 9.00353 9.89112e-05 9.55566 0C10.1079 2.4138e-08 10.5556 0.447811 10.5557 1V10.5557H32.4443V1C32.4445 0.447811 32.8921 -2.4138e-08 33.4443 0ZM2 46.7783H41V21.6377H2.58008V20.1377H41V12.5557H2V46.7783ZM30.7969 27.1895C30.9876 27.1895 31.1773 27.2311 31.3535 27.3125C31.5296 27.3939 31.6894 27.5137 31.8242 27.6641C32.0964 27.9677 32.249 28.3793 32.249 28.8086C32.2489 29.2377 32.0964 29.6496 31.8242 29.9531L20.9404 42.0879C20.7968 42.2479 20.626 42.3752 20.4385 42.4619C20.2508 42.5485 20.0489 42.5937 19.8457 42.5938C19.6425 42.5937 19.4407 42.5486 19.2529 42.4619C19.0651 42.3751 18.8938 42.2482 18.75 42.0879L13.3428 36.0596C13.2042 35.9103 13.0937 35.7316 13.0176 35.5342C12.9415 35.3368 12.9011 35.124 12.8994 34.9092C12.8978 34.6945 12.9349 34.481 13.0078 34.2822C13.0808 34.0835 13.1891 33.9029 13.3252 33.751C13.4614 33.5991 13.6235 33.4779 13.8018 33.3965C13.98 33.3152 14.1717 33.2746 14.3643 33.2764C14.5569 33.2783 14.7478 33.3234 14.9248 33.4082C15.1017 33.493 15.2617 33.6161 15.3955 33.7705L19.8447 38.7314L29.7705 27.6641C29.9052 27.5138 30.0652 27.3939 30.2412 27.3125C30.4172 27.2312 30.6064 27.1896 30.7969 27.1895Z" fill="#FF629C"/>
</svg>
