<svg width="45" height="45" viewBox="0 0 45 45" fill="none" xmlns="http://www.w3.org/2000/svg">
<path d="M40.3903 37.7489L33.488 30.9023C36.1672 27.5617 37.4647 23.3215 37.1137 19.0536C36.7626 14.7857 34.7897 10.8145 31.6006 7.95657C28.4114 5.09864 24.2485 3.5712 19.9678 3.68834C15.6871 3.80548 11.614 5.55828 8.58591 8.58633C5.55785 11.6144 3.80505 15.6875 3.68791 19.9683C3.57078 24.249 5.09821 28.4119 7.95614 31.601C10.8141 34.7901 14.7853 36.763 19.0532 37.1141C23.3211 37.4651 27.5613 36.1676 30.9019 33.4884L37.7484 40.3349C37.9214 40.5093 38.1272 40.6477 38.3539 40.7421C38.5806 40.8366 38.8238 40.8852 39.0694 40.8852C39.315 40.8852 39.5581 40.8366 39.7849 40.7421C40.0116 40.6477 40.2173 40.5093 40.3903 40.3349C40.7256 39.988 40.9131 39.5244 40.9131 39.0419C40.9131 38.5594 40.7256 38.0958 40.3903 37.7489ZM20.4647 33.4884C17.889 33.4884 15.371 32.7246 13.2294 31.2936C11.0877 29.8626 9.41849 27.8286 8.43279 25.4489C7.44709 23.0692 7.18919 20.4507 7.69169 17.9244C8.1942 15.3982 9.43454 13.0776 11.2559 11.2563C13.0772 9.43497 15.3977 8.19463 17.924 7.69212C20.4503 7.18962 23.0688 7.44752 25.4485 8.43322C27.8282 9.41892 29.8621 11.0881 31.2932 13.2298C32.7242 15.3715 33.488 17.8894 33.488 20.4651C33.488 23.9191 32.1159 27.2316 29.6735 29.674C27.2312 32.1163 23.9187 33.4884 20.4647 33.4884Z" fill="#333333"/>
</svg>
