<svg width="38" height="38" viewBox="0 0 38 38" fill="none" xmlns="http://www.w3.org/2000/svg">
<path d="M31.0083 15.5041V10.8529C31.0083 9.14041 29.6201 7.75214 27.9076 7.75214H9.30292C7.59041 7.75214 6.20215 9.14041 6.20215 10.8529V15.5041M31.0083 15.5041V29.4576C31.0083 31.1701 29.6201 32.5583 27.9076 32.5583H9.30292C7.59041 32.5583 6.20215 31.1701 6.20215 29.4576V15.5041M31.0083 15.5041H6.20215M12.4037 4.65137V10.8529M24.8068 4.65137V10.8529" stroke="#222222" stroke-width="2.23256" stroke-linecap="round"/>
<path d="M13.1777 18.6055H10.077C9.64882 18.6055 9.30176 18.9525 9.30176 19.3807V22.4814C9.30176 22.9096 9.64882 23.2566 10.077 23.2566H13.1777C13.6059 23.2566 13.9529 22.9096 13.9529 22.4814V19.3807C13.9529 18.9525 13.6059 18.6055 13.1777 18.6055Z" fill="#222222"/>
<path d="M20.1553 18.6055H17.0545C16.6264 18.6055 16.2793 18.9525 16.2793 19.3807V22.4814C16.2793 22.9096 16.6264 23.2566 17.0545 23.2566H20.1553C20.5834 23.2566 20.9305 22.9096 20.9305 22.4814V19.3807C20.9305 18.9525 20.5834 18.6055 20.1553 18.6055Z" fill="#222222"/>
<path d="M27.1318 18.6055H24.0311C23.6029 18.6055 23.2559 18.9525 23.2559 19.3807V22.4814C23.2559 22.9096 23.6029 23.2566 24.0311 23.2566H27.1318C27.56 23.2566 27.907 22.9096 27.907 22.4814V19.3807C27.907 18.9525 27.56 18.6055 27.1318 18.6055Z" fill="#222222"/>
</svg>
