<svg width="30" height="30" viewBox="0 0 30 30" fill="none" xmlns="http://www.w3.org/2000/svg">
<path d="M14.2822 27.1532L14.6041 26.6096L13.0029 25.662L12.6812 26.2056L14.2822 27.1532ZM10.2029 26.6096L10.5247 27.1532L12.1257 26.2056L11.804 25.662L10.2029 26.6096ZM12.6812 26.2056C12.6249 26.3007 12.5265 26.3567 12.4035 26.3567C12.2804 26.3567 12.1821 26.3007 12.1257 26.2056L10.5247 27.1532C11.3643 28.5718 13.4426 28.5718 14.2822 27.1532L12.6812 26.2056ZM10.9151 8.37218H13.8919V6.51172H10.9151V8.37218ZM21.3957 15.8761V16.8683H23.2562V15.8761H21.3957ZM3.41125 16.8683V15.8761H1.55078V16.8683H3.41125ZM1.55078 16.8683C1.55078 18.0115 1.55027 18.9153 1.60015 19.6462C1.65059 20.3855 1.75564 21.0154 1.99924 21.6036L3.71809 20.8916C3.58403 20.5679 3.50028 20.1642 3.45629 19.5196C3.41176 18.8667 3.41125 18.0369 3.41125 16.8683H1.55078ZM7.83082 23.3618C6.84817 23.3303 6.31414 23.2449 5.89966 23.0732L5.18768 24.792C5.92798 25.0986 6.74451 25.1884 7.77135 25.2213L7.83082 23.3618ZM1.99924 21.6036C2.59719 23.0472 3.74411 24.1941 5.18768 24.792L5.89966 23.0732C4.91195 22.664 4.12722 21.8793 3.71809 20.8916L1.99924 21.6036ZM21.3957 16.8683C21.3957 18.0369 21.3952 18.8667 21.3507 19.5196C21.3067 20.1642 21.223 20.5679 21.0889 20.8916L22.8077 21.6036C23.0513 21.0154 23.1564 20.3855 23.2068 19.6462C23.2567 18.9153 23.2562 18.0115 23.2562 16.8683H21.3957ZM17.0356 25.2213C18.0624 25.1884 18.879 25.0986 19.6192 24.792L18.9073 23.0732C18.4928 23.2449 17.9588 23.3303 16.9761 23.3618L17.0356 25.2213ZM21.0889 20.8916C20.6798 21.8793 19.8951 22.664 18.9073 23.0732L19.6192 24.792C21.0628 24.1941 22.2098 23.0472 22.8077 21.6036L21.0889 20.8916ZM13.8919 8.37218C15.5339 8.37218 16.7001 8.37316 17.607 8.45939C18.5001 8.5443 19.0451 8.70527 19.4709 8.96619L20.4431 7.37989C19.6758 6.90972 18.8123 6.70515 17.7831 6.60729C16.7678 6.51074 15.4979 6.51172 13.8919 6.51172V8.37218ZM23.2562 15.8761C23.2562 14.2701 23.2572 13.0003 23.1607 11.9848C23.0628 10.9556 22.8582 10.0922 22.388 9.32492L20.8018 10.297C21.0626 10.7228 21.2236 11.2679 21.3085 12.1609C21.3948 13.0679 21.3957 14.234 21.3957 15.8761H23.2562ZM19.4709 8.96619C20.0133 9.29857 20.4694 9.75461 20.8018 10.297L22.388 9.32492C21.9023 8.53218 21.2357 7.86568 20.4431 7.37989L19.4709 8.96619ZM10.9151 6.51172C9.30911 6.51172 8.03928 6.51074 7.02389 6.60729C5.99465 6.70515 5.13121 6.90972 4.36397 7.37989L5.33606 8.96619C5.76185 8.70527 6.30694 8.5443 7.19998 8.45939C8.10687 8.37316 9.27309 8.37218 10.9151 8.37218V6.51172ZM3.41125 15.8761C3.41125 14.234 3.41223 13.0679 3.49845 12.1609C3.58336 11.2679 3.74433 10.7228 4.00526 10.297L2.41895 9.32492C1.94878 10.0922 1.74421 10.9556 1.64635 11.9848C1.5498 13.0003 1.55078 14.2701 1.55078 15.8761H3.41125ZM4.36397 7.37989C3.57123 7.86568 2.90473 8.53218 2.41895 9.32492L4.00526 10.297C4.33763 9.75461 4.79367 9.29857 5.33606 8.96619L4.36397 7.37989ZM11.804 25.662C11.5549 25.2411 11.3364 24.8703 11.1246 24.5786C10.9017 24.2717 10.6463 23.9944 10.2928 23.7853L9.34555 25.3866C9.40274 25.4204 9.48166 25.4824 9.6193 25.6719C9.76797 25.8767 9.93628 26.1591 10.2029 26.6096L11.804 25.662ZM7.77135 25.2213C8.32384 25.239 8.67701 25.2512 8.94529 25.2839C9.19892 25.3148 9.2941 25.3561 9.34555 25.3866L10.2928 23.7853C9.93345 23.5728 9.55538 23.484 9.17055 23.4371C8.80037 23.392 8.34988 23.3784 7.83082 23.3618L7.77135 25.2213ZM14.6041 26.6096C14.8706 26.1591 15.039 25.8767 15.1876 25.6719C15.3253 25.4824 15.4042 25.4204 15.4614 25.3866L14.5143 23.7853C14.1606 23.9944 13.9053 24.2717 13.6824 24.5786C13.4705 24.8703 13.252 25.2411 13.0029 25.662L14.6041 26.6096ZM16.9761 23.3618C16.4571 23.3784 16.0066 23.392 15.6364 23.4371C15.2516 23.484 14.8734 23.5728 14.5143 23.7853L15.4614 25.3866C15.5128 25.3561 15.6081 25.3148 15.8616 25.2839C16.1299 25.2512 16.4831 25.239 17.0356 25.2213L16.9761 23.3618Z" fill="#222222"/>
<path d="M16.5886 3.41125H19.3793V1.55078H16.5886V3.41125ZM26.356 10.388V11.3183H28.2165V10.388H26.356ZM26.356 11.3183C26.356 12.4145 26.3555 13.1902 26.314 13.7998C26.2729 14.4011 26.195 14.7726 26.0729 15.0678L27.7917 15.7797C28.0235 15.2201 28.1226 14.6225 28.1701 13.9265C28.2171 13.2388 28.2165 12.3891 28.2165 11.3183H26.356ZM26.0729 15.0678C25.6952 15.9796 24.9709 16.7039 24.0591 17.0816L24.771 18.8004C26.1387 18.2339 27.2252 17.1473 27.7917 15.7797L26.0729 15.0678ZM19.3793 3.41125C20.9199 3.41125 22.01 3.41223 22.8567 3.49275C23.6897 3.57194 24.1908 3.72149 24.5793 3.95956L25.5514 2.37326C24.8215 1.92594 24.002 1.73278 23.0329 1.64063C22.0776 1.5498 20.8839 1.55078 19.3793 1.55078V3.41125ZM28.2165 10.388C28.2165 8.88351 28.2175 7.6898 28.1267 6.73447C28.0345 5.76531 27.8414 4.94587 27.394 4.21591L25.8078 5.188C26.0458 5.57651 26.1954 6.07758 26.2745 6.91057C26.3552 7.75739 26.356 8.84748 26.356 10.388H28.2165ZM24.5793 3.95956C25.08 4.26638 25.501 4.68733 25.8078 5.188L27.394 4.21591C26.9339 3.4649 26.3024 2.83347 25.5514 2.37326L24.5793 3.95956ZM16.5886 1.55078C15.0841 1.55078 13.8904 1.5498 12.9351 1.64063C11.9659 1.73278 11.1465 1.92594 10.4166 2.37326L11.3886 3.95956C11.7772 3.72149 12.2782 3.57194 13.1113 3.49275C13.958 3.41223 15.0481 3.41125 16.5886 3.41125V1.55078ZM10.4166 2.37326C9.66555 2.83347 9.03413 3.4649 8.57391 4.21591L10.1602 5.188C10.467 4.68733 10.888 4.26638 11.3886 3.95956L10.4166 2.37326ZM9.65189 7.49058C9.71386 6.29941 9.86879 5.66358 10.1602 5.188L8.57391 4.21591C8.03174 5.10066 7.85999 6.12402 7.79395 7.39393L9.65189 7.49058ZM22.356 19.2063C23.307 19.1747 24.0732 19.0895 24.771 18.8004L24.0591 17.0816C23.6845 17.2367 23.1982 17.3169 22.2943 17.347L22.356 19.2063Z" fill="#222222"/>
<path d="M8.07422 16.124H8.08538M12.4038 16.124H12.415M16.7337 16.124H16.7449" stroke="#222222" stroke-width="2.48062" stroke-linecap="round" stroke-linejoin="round"/>
</svg>
