<svg width="640" height="120" viewBox="0 0 640 120" fill="none" xmlns="http://www.w3.org/2000/svg">
<g filter="url(#filter0_d_1190_461)">
<path d="M647.441 1.48828C676.211 1.48828 699.535 24.811 699.535 53.5811C699.535 82.3512 676.212 105.675 647.441 105.675C630.838 105.675 616.051 97.9058 606.512 85.8066C596.973 97.906 582.184 105.675 565.581 105.675C548.978 105.675 534.19 97.9067 524.65 85.8076C515.111 97.9064 500.323 105.675 483.721 105.675C467.118 105.675 452.329 97.9067 442.79 85.8076C433.251 97.9064 418.463 105.675 401.86 105.675C385.257 105.675 370.469 97.9067 360.93 85.8076C351.39 97.9065 336.603 105.675 320 105.675C303.397 105.675 288.609 97.9067 279.069 85.8076C269.53 97.9065 254.742 105.675 238.14 105.675C221.537 105.675 206.748 97.9067 197.209 85.8076C187.67 97.9065 172.882 105.675 156.279 105.675C139.676 105.675 124.888 97.9067 115.349 85.8076C105.809 97.9065 91.0217 105.675 74.4189 105.675C57.8157 105.675 43.0275 97.906 33.4883 85.8066C23.9492 97.9058 9.1616 105.675 -7.44141 105.675C-36.2116 105.675 -59.5352 82.3512 -59.5352 53.5811C-59.535 24.811 -36.2115 1.48828 -7.44141 1.48828C9.16141 1.48842 23.9492 9.2565 33.4883 21.3555C43.0275 9.25634 57.8159 1.48828 74.4189 1.48828C91.0215 1.48839 105.809 9.25587 115.349 21.3545C124.888 9.25568 139.677 1.48828 156.279 1.48828C172.882 1.48835 187.67 9.25588 197.209 21.3545C206.748 9.25565 221.537 1.48828 238.14 1.48828C254.742 1.48832 269.53 9.25588 279.069 21.3545C288.609 9.25561 303.397 1.48828 320 1.48828C336.603 1.48828 351.39 9.25589 360.93 21.3545C370.469 9.25561 385.258 1.48832 401.86 1.48828C418.463 1.48828 433.251 9.25592 442.79 21.3545C452.329 9.25561 467.118 1.48835 483.721 1.48828C500.323 1.48828 515.111 9.25595 524.65 21.3545C534.19 9.2556 548.978 1.48838 565.581 1.48828C582.184 1.48828 596.973 9.25633 606.512 21.3555C616.051 9.2565 630.839 1.48842 647.441 1.48828Z" fill="#194824"/>
</g>
<defs>
<filter id="filter0_d_1190_461" x="-66.977" y="-9.05991e-05" width="773.954" height="119.07" filterUnits="userSpaceOnUse" color-interpolation-filters="sRGB">
<feFlood flood-opacity="0" result="BackgroundImageFix"/>
<feColorMatrix in="SourceAlpha" type="matrix" values="0 0 0 0 0 0 0 0 0 0 0 0 0 0 0 0 0 0 127 0" result="hardAlpha"/>
<feOffset dy="5.95349"/>
<feGaussianBlur stdDeviation="3.72093"/>
<feComposite in2="hardAlpha" operator="out"/>
<feColorMatrix type="matrix" values="0 0 0 0 0 0 0 0 0 0 0 0 0 0 0 0 0 0 0.25 0"/>
<feBlend mode="normal" in2="BackgroundImageFix" result="effect1_dropShadow_1190_461"/>
<feBlend mode="normal" in="SourceGraphic" in2="effect1_dropShadow_1190_461" result="shape"/>
</filter>
</defs>
</svg>
