<svg width="29" height="24" viewBox="0 0 29 24" fill="none" xmlns="http://www.w3.org/2000/svg">
<path d="M14 0C21.732 0 28 5.478 28 12.2354C28 15.3468 26.6703 17.9651 24.4814 19.8857L24.8359 20.3096C24.8727 20.2629 24.8711 20.2126 24.8711 20.2061C24.8765 20.2296 24.9024 20.2973 24.9873 20.4121C25.156 20.6402 25.4572 20.9237 25.8447 21.2334C26.6111 21.8459 27.5898 22.4646 28.1602 22.8271C28.2064 22.8566 28.2596 22.8942 28.3086 22.9404C28.3499 22.9794 28.4326 23.0648 28.4746 23.1973C28.5291 23.3698 28.4954 23.5641 28.3691 23.71C28.2729 23.8207 28.1558 23.8645 28.1025 23.8818C27.9872 23.9193 27.8605 23.9272 27.7686 23.9287C27.6639 23.9304 27.5435 23.925 27.415 23.915C26.9039 23.8754 26.1281 23.752 25.292 23.5859C24.4514 23.419 23.5296 23.2048 22.7197 22.9785C21.9251 22.7565 21.1905 22.5097 20.7568 22.2686L20.6416 22.2041C18.6652 22.998 16.4037 23.4287 14 23.4287C6.26804 23.4287 4.80133e-05 18.9927 0 12.2354C0 5.478 6.26801 7.88318e-07 14 0ZM19.1953 5.55273C17.6274 4.66455 15.6575 4.65934 14 5.96973C12.3424 4.6592 10.3727 4.6653 8.80469 5.55273C7.1288 6.50321 5.94996 8.43044 6.00195 10.6797C6.11181 15.4294 12.8 18.9297 14 18.9297C15.2004 18.9294 21.8874 15.4292 21.998 10.6797C22.05 8.43054 20.8711 6.50248 19.1953 5.55273Z" fill="#FF3164"/>
</svg>
