<svg width="25" height="25" viewBox="0 0 25 25" fill="none" xmlns="http://www.w3.org/2000/svg">
<path d="M12.5 12.5C10.7812 12.5 9.30989 11.888 8.08594 10.6641C6.86198 9.4401 6.25 7.96875 6.25 6.25C6.25 4.53125 6.86198 3.0599 8.08594 1.83594C9.30989 0.611979 10.7812 0 12.5 0C14.2187 0 15.6901 0.611979 16.9141 1.83594C18.138 3.0599 18.75 4.53125 18.75 6.25C18.75 7.96875 18.138 9.4401 16.9141 10.6641C15.6901 11.888 14.2187 12.5 12.5 12.5ZM0 21.875V20.625C0 19.7396 0.228125 18.926 0.684375 18.1844C1.14063 17.4427 1.74583 16.876 2.5 16.4844C4.11458 15.6771 5.75521 15.0719 7.42187 14.6687C9.08854 14.2656 10.7812 14.0635 12.5 14.0625C14.2187 14.0615 15.9115 14.2635 17.5781 14.6687C19.2448 15.074 20.8854 15.6792 22.5 16.4844C23.2552 16.875 23.8609 17.4417 24.3172 18.1844C24.7734 18.9271 25.001 19.7406 25 20.625V21.875C25 22.7344 24.6943 23.4703 24.0828 24.0828C23.4713 24.6953 22.7354 25.001 21.875 25H3.125C2.26562 25 1.53021 24.6943 0.91875 24.0828C0.307291 23.4714 0.00104167 22.7354 0 21.875Z" fill="#FF3164"/>
</svg>
