<svg width="30" height="30" viewBox="0 0 30 30" fill="none" xmlns="http://www.w3.org/2000/svg">
<path d="M16.2718 0.500977C15.5511 -0.166992 14.4378 -0.166992 13.723 0.500977L0.597965 12.6885C0.035465 13.2158 -0.152035 14.0303 0.129215 14.7451C0.410465 15.46 1.09601 15.9346 1.86945 15.9346H2.80695V26.2471C2.80695 28.3154 4.48859 29.9971 6.55695 29.9971H23.4319C25.5003 29.9971 27.1819 28.3154 27.1819 26.2471V15.9346H28.1194C28.8929 15.9346 29.5843 15.46 29.8655 14.7451C30.1468 14.0303 29.9593 13.21 29.3968 12.6885L16.2718 0.500977ZM14.0569 18.7471H15.9319C17.4847 18.7471 18.7444 20.0068 18.7444 21.5596V27.1846H11.2444V21.5596C11.2444 20.0068 12.5042 18.7471 14.0569 18.7471Z" fill="#FF3164"/>
</svg>
