<svg width="27" height="27" viewBox="0 0 27 27" fill="none" xmlns="http://www.w3.org/2000/svg">
<path d="M10.3486 14.7842C11.4221 14.7842 12.3047 15.6315 12.3477 16.7041L12.667 24.7041C12.7123 25.839 11.8048 26.7842 10.6689 26.7842H3.96484C2.95262 26.7841 2.10025 26.0274 1.97949 25.0225L1.01953 17.0225C0.876721 15.832 1.80591 14.7842 3.00488 14.7842H10.3486ZM23.7461 14.7842C24.945 14.7843 25.8743 15.832 25.7314 17.0225L24.7715 25.0225C24.6507 26.0274 23.7983 26.7841 22.7861 26.7842H16.082C14.9462 26.7842 14.0387 25.8391 14.084 24.7041L14.4033 16.7041C14.4463 15.6315 15.3289 14.7842 16.4023 14.7842H23.7461ZM13.3135 2.4082C14.5011 0.496349 16.4677 -0.454675 17.8643 0.212891L18.002 0.28418C19.451 1.1133 19.6461 3.49864 18.4375 5.61133C17.2666 7.6578 15.2077 8.69906 13.7627 8.00879L13.624 7.93555C13.5126 7.87178 13.41 7.79714 13.3135 7.71582C13.2169 7.79721 13.1134 7.87174 13.002 7.93555L12.8643 8.00879C12.45 8.20666 11.9856 8.26097 11.5059 8.19141C12.3984 8.71119 12.9999 9.67596 13 10.7832C13 12.4401 11.6568 13.7832 10 13.7832H3C1.3433 13.783 0 12.4399 0 10.7832C0.000213842 9.12665 1.34344 7.78339 3 7.7832H10C10.126 7.7832 10.2501 7.79155 10.3721 7.80664C9.54959 7.3718 8.76257 6.61305 8.18945 5.61133C6.98087 3.49863 7.17591 1.11332 8.625 0.28418L8.7627 0.212891C10.1592 -0.454682 12.1258 0.49631 13.3135 2.4082ZM24 7.7832C25.6567 7.78321 26.9998 9.12654 27 10.7832C27 12.4401 25.6568 13.7832 24 13.7832H17C15.3433 13.783 14 12.4399 14 10.7832C14.0002 9.12667 15.3435 7.78343 17 7.7832H24ZM10.4697 1.69434C9.89765 1.41805 9.54128 1.48911 9.37012 1.58691C9.19906 1.68487 8.95703 1.95659 8.90527 2.58984C8.85444 3.21473 9.01819 4.0392 9.49121 4.86621C9.96471 5.6938 10.5934 6.2536 11.1582 6.52637C11.7304 6.80268 12.0867 6.73163 12.2578 6.63379C12.3368 6.58854 12.4283 6.50467 12.5117 6.36719C12.3523 5.74172 12.3577 5.01019 12.5352 4.25391C12.4401 3.96086 12.3093 3.65695 12.1357 3.35352C11.6624 2.52628 11.0344 1.96715 10.4697 1.69434ZM17.2568 1.58691C17.0857 1.48911 16.7293 1.41805 16.1572 1.69434C15.5926 1.96713 14.9646 2.52629 14.4912 3.35352C14.3177 3.65672 14.1859 3.96009 14.0908 4.25293C14.2685 5.0097 14.2739 5.74136 14.1143 6.36719C14.1977 6.50497 14.2901 6.5885 14.3691 6.63379C14.5402 6.73165 14.8965 6.8027 15.4688 6.52637C16.0335 6.2536 16.6623 5.69375 17.1357 4.86621C17.6087 4.03922 17.7725 3.21472 17.7217 2.58984C17.6699 1.95663 17.4279 1.68489 17.2568 1.58691Z" fill="#FF3164"/>
</svg>
