<svg width="32" height="38" viewBox="0 0 32 38" fill="none" xmlns="http://www.w3.org/2000/svg">
<g clip-path="url(#clip0_966_724)">
<path d="M30.9976 12.9647C28.3759 14.5294 26.7566 17.2118 26.7566 20.1922C26.7566 23.5451 28.8386 26.6 32 27.8667C31.3831 29.8039 30.4578 31.5922 29.3012 33.2314C27.6048 35.5412 25.8313 37.9255 23.2096 37.9255C20.588 37.9255 19.8169 36.4353 16.7325 36.4353C13.7253 36.4353 12.6458 38 10.1783 38C7.71084 38 6.01446 35.8392 4.08675 33.1569C1.54217 29.4314 0.0771084 25.1098 0 20.5647C0 13.1882 4.93494 9.23922 9.86988 9.23922C12.4916 9.23922 14.6506 10.8784 16.2699 10.8784C17.812 10.8784 20.2795 9.16471 23.2096 9.16471C26.294 9.0902 29.2241 10.5059 30.9976 12.9647ZM21.8217 6.03529C23.1325 4.5451 23.8265 2.68235 23.9036 0.745098C23.9036 0.521569 23.9036 0.223529 23.8265 0C21.5904 0.223529 19.5084 1.26667 18.0434 2.90588C16.7325 4.32157 15.9614 6.1098 15.8843 8.04706C15.8843 8.27059 15.8843 8.49412 15.9614 8.71765C16.1157 8.71765 16.347 8.79216 16.5012 8.79216C18.5831 8.64314 20.5108 7.6 21.8217 6.03529Z" fill="black"/>
</g>
<defs>
<clipPath id="clip0_966_724">
<rect width="32" height="38" fill="white"/>
</clipPath>
</defs>
</svg>
