<svg width="430" height="181" viewBox="0 0 430 181" fill="none" xmlns="http://www.w3.org/2000/svg">
<path d="M-0.0534363 -0.5C-0.0534363 75.163 96.2044 136.5 214.946 136.5C333.687 136.5 429.946 75.163 429.946 -0.5C429.946 -76.163 333.687 -137.5 214.946 -137.5C96.2044 -137.5 -0.0534363 -76.163 -0.0534363 -0.5Z" fill="#FAB7C7"/>
<path d="M-155.999 43.5002C-155.999 119.163 -59.7407 180.5 59.0005 180.5C177.742 180.5 274.001 119.163 274.001 43.5002C274.001 -32.1628 177.742 -93.5 59.0005 -93.5C-59.7407 -93.5 -155.999 -32.1628 -155.999 43.5002Z" fill="#FF5781"/>
<path d="M59.0005 -93.5C59.0005 -17.837 155.259 43.5002 274.001 43.5002C392.742 43.5002 489 -17.837 489 -93.5C489 -169.163 392.741 -230.5 274 -230.5C155.259 -230.5 59.0005 -169.163 59.0005 -93.5Z" fill="#FB99B2"/>
</svg>
